<svg xmlns="http://www.w3.org/2000/svg" xmlns:xlink="http://www.w3.org/1999/xlink" width="330" height="210" viewBox="0 0 330 210">
  <defs>
    <filter id="Bg" x="0" y="0" width="330" height="210" filterUnits="userSpaceOnUse">
      <feOffset dy="12" input="SourceAlpha"/>
      <feGaussianBlur stdDeviation="12" result="blur"/>
      <feFlood flood-opacity="0.024"/>
      <feComposite operator="in" in2="blur"/>
      <feComposite in="SourceGraphic"/>
    </filter>
  </defs>
  <g id="_01" data-name="01" transform="translate(36 24)">
    <g transform="matrix(1, 0, 0, 1, -36, -24)" filter="url(#Bg)">
      <g id="Bg-2" data-name="Bg" transform="translate(36 24)" fill="#fff" stroke="#f8f8f8" stroke-width="1">
        <rect width="258" height="138" rx="19" stroke="none"/>
        <rect x="0.5" y="0.5" width="257" height="137" rx="18.5" fill="none"/>
      </g>
    </g>
    <g id="logo" transform="translate(48 18.642)">
      <path id="Clip" d="M0,0H162V100H0Z" fill="none"/>
      <path id="Combined_Shape" data-name="Combined Shape" d="M0,43.1,21.892,21.209,43.782,43.1,21.892,64.992Zm74.755,2.129a1.265,1.265,0,0,1-.476-.5,1.664,1.664,0,0,1,0-1.47,1.259,1.259,0,0,1,.476-.5,1.492,1.492,0,0,1,1.418,0,1.234,1.234,0,0,1,.473.5,1.672,1.672,0,0,1,0,1.47,1.239,1.239,0,0,1-.473.5,1.485,1.485,0,0,1-1.418,0Zm.217-2.147a.829.829,0,0,0-.325.359,1.251,1.251,0,0,0-.114.556,1.27,1.27,0,0,0,.114.558.84.84,0,0,0,.325.357.955.955,0,0,0,.492.125.935.935,0,0,0,.489-.125.863.863,0,0,0,.325-.357A1.245,1.245,0,0,0,76.395,44a1.226,1.226,0,0,0-.117-.556.846.846,0,0,0-.325-.359.934.934,0,0,0-.489-.125A.951.951,0,0,0,74.972,43.082ZM59.188,45.229a1.265,1.265,0,0,1-.476-.5,1.664,1.664,0,0,1,0-1.47,1.259,1.259,0,0,1,.476-.5,1.492,1.492,0,0,1,1.417,0,1.234,1.234,0,0,1,.473.5,1.672,1.672,0,0,1,0,1.47,1.239,1.239,0,0,1-.473.5,1.485,1.485,0,0,1-1.417,0Zm.217-2.147a.823.823,0,0,0-.325.359,1.251,1.251,0,0,0-.114.556,1.27,1.27,0,0,0,.114.558.834.834,0,0,0,.325.357.953.953,0,0,0,.492.125.935.935,0,0,0,.489-.125.863.863,0,0,0,.325-.357A1.245,1.245,0,0,0,60.827,44a1.226,1.226,0,0,0-.117-.556.846.846,0,0,0-.325-.359.934.934,0,0,0-.489-.125A.951.951,0,0,0,59.4,43.082Zm43.6,2.15a1.191,1.191,0,0,1-.447-.49,1.619,1.619,0,0,1-.159-.737,1.6,1.6,0,0,1,.163-.737,1.228,1.228,0,0,1,.466-.5,1.37,1.37,0,0,1,.715-.18,1.3,1.3,0,0,1,.779.225,1.038,1.038,0,0,1,.4.625h-.467a.6.6,0,0,0-.246-.342.81.81,0,0,0-.472-.125.857.857,0,0,0-.674.275,1.316,1.316,0,0,0,0,1.524.814.814,0,0,0,.643.274.774.774,0,0,0,.61-.231,1.033,1.033,0,0,0,.239-.611h-.74v-.319h1.157v1.48h-.378l-.035-.4a.98.98,0,0,1-.343.331,1.089,1.089,0,0,1-.538.117A1.276,1.276,0,0,1,103,45.232Zm-31.861,0a1.183,1.183,0,0,1-.454-.494,1.783,1.783,0,0,1,0-1.473,1.2,1.2,0,0,1,.454-.5,1.313,1.313,0,0,1,.7-.179,1.25,1.25,0,0,1,.783.233,1.038,1.038,0,0,1,.386.656h-.459a.636.636,0,0,0-.235-.378.749.749,0,0,0-.479-.141.806.806,0,0,0-.646.278,1.145,1.145,0,0,0-.238.766,1.13,1.13,0,0,0,.238.761.811.811,0,0,0,.646.276.787.787,0,0,0,.479-.132.61.61,0,0,0,.235-.363h.459a1.013,1.013,0,0,1-.386.635,1.26,1.26,0,0,1-.783.229A1.321,1.321,0,0,1,71.141,45.23Zm-8.2.062a.858.858,0,0,1-.374-.352,1.183,1.183,0,0,1-.139-.6v-1.7h.413v1.707a.709.709,0,0,0,.172.525.631.631,0,0,0,.464.168.623.623,0,0,0,.46-.168.705.705,0,0,0,.171-.525V42.634h.413v1.7a1.156,1.156,0,0,1-.142.6.881.881,0,0,1-.382.352,1.2,1.2,0,0,1-.528.115A1.179,1.179,0,0,1,62.941,45.292Zm3.263.07-.411,0V42.634h.939a1.18,1.18,0,0,1,.534.108.742.742,0,0,1,.309.3.865.865,0,0,1-.033.871.732.732,0,0,1-.419.3l.58,1.156h-.478l-.531-1.1H66.2v1.1Zm0-1.413h.5a.545.545,0,0,0,.41-.136.494.494,0,0,0,.131-.354.484.484,0,0,0-.129-.349.563.563,0,0,0-.418-.131h-.5Zm59.547,1.412h-.412V42.634h.939a1.169,1.169,0,0,1,.534.108.732.732,0,0,1,.309.3.865.865,0,0,1-.033.871.736.736,0,0,1-.419.3l.58,1.156-.478,0-.531-1.1h-.487v1.1h0Zm0-1.412h.5a.549.549,0,0,0,.41-.136.491.491,0,0,0,.131-.354.479.479,0,0,0-.129-.349.563.563,0,0,0-.418-.131h-.5Zm-5.085,1.412v-1.22h-1.321v1.22h-.413V42.633h.413V43.8h1.321V42.633h.413v2.729Zm-11.617,0V42.634h.413v2.728Zm-2.837,0V42.634h.413v2.4h1.238v.328Zm-7.142,0,1.005-2.727h.452l1,2.726h-.437l-.234-.666H99.741l-.234.666h-.436Zm.787-.994h.881l-.441-1.242Zm-2.657.994V42.969h-.807v-.335h2.022v.335h-.8v2.393Zm-7.156,0-1.368-2.054v2.054h-.413V42.634h.413l1.368,2.054V42.634h.413v2.728Zm-5.357,0,1.005-2.727h.452l1,2.726h-.437l-.234-.666H85.358l-.234.666h-.436Zm.787-.994h.881l-.441-1.242Zm42.974.994V42.633h1.733v.335h-1.321v.851h1.2v.327h-1.2v.881h1.321v.335Zm-6.076,0V42.633h1.734v.335h-1.321v.851h1.2v.327h-1.2v.881h1.321v.335Zm-8.129,0V42.633h1.734v.335h-1.321v.851h1.2v.327h-1.2v.881h1.321v.335Zm-1.705,0-1.368-2.054v2.054h-.413V42.633h.413l1.368,2.054V42.633h.412v2.728Zm-20.092,0V44.356l-.9-1.722h.467l.643,1.317.641-1.317h.463l-.9,1.722v1.005Zm-9.907,0h-.412V42.634h.955a1.183,1.183,0,0,1,.53.106.733.733,0,0,1,.313.292.857.857,0,0,1,.1.419.826.826,0,0,1-.1.407.7.7,0,0,1-.309.294,1.174,1.174,0,0,1-.538.11h-.542v1.1h0Zm0-1.437h.522a.573.573,0,0,0,.418-.127.468.468,0,0,0,.128-.345.476.476,0,0,0-.128-.352.565.565,0,0,0-.418-.127h-.522Zm-2.12,1.437V43.347l-.834,1.625h-.319l-.839-1.621v2.011h-.412V42.634H78.5l.923,1.815.921-1.815h.486v2.727Zm-23.992,0V44.356l-.9-1.722h.467l.643,1.317.64-1.317h.463l-.9,1.722v1.005Zm11.9-6.841a3.975,3.975,0,0,1-1.522-2.093,9.888,9.888,0,0,1-.439-3.078V25.361a9.134,9.134,0,0,1,.463-3.056A3.924,3.924,0,0,1,68.378,20.3a6.45,6.45,0,0,1,5.895,0,3.866,3.866,0,0,1,1.534,2.009,9.344,9.344,0,0,1,.453,3.056v8.011a9.711,9.711,0,0,1-.441,3.055,4.063,4.063,0,0,1-1.51,2.081,5.072,5.072,0,0,1-2.971.761A5.254,5.254,0,0,1,68.331,38.52Zm1.046-17a2.466,2.466,0,0,0-.927,1.391,8.047,8.047,0,0,0-.25,2.116v8.725a8.164,8.164,0,0,0,.25,2.128,2.589,2.589,0,0,0,.927,1.426,3.229,3.229,0,0,0,1.961.51,3.124,3.124,0,0,0,1.925-.51,2.616,2.616,0,0,0,.916-1.426,8.147,8.147,0,0,0,.249-2.128V25.028a8.03,8.03,0,0,0-.249-2.116,2.5,2.5,0,0,0-.916-1.391,3.235,3.235,0,0,0-1.925-.488A3.345,3.345,0,0,0,69.377,21.522ZM57.323,38.46a4.118,4.118,0,0,1-1.462-2.175,10.649,10.649,0,0,1-.4-3.031V25.6a10.68,10.68,0,0,1,.416-3.137,3.92,3.92,0,0,1,1.486-2.116,5.054,5.054,0,0,1,2.971-.761,4.816,4.816,0,0,1,2.722.666,3.651,3.651,0,0,1,1.415,1.89,8.85,8.85,0,0,1,.428,2.912v1.165H63.183V25.1a10.081,10.081,0,0,0-.2-2.164,2.413,2.413,0,0,0-.82-1.4,2.823,2.823,0,0,0-1.807-.5,3.049,3.049,0,0,0-1.961.535,2.645,2.645,0,0,0-.88,1.509,10.145,10.145,0,0,0-.226,2.258v8.2a8.7,8.7,0,0,0,.275,2.377,2.539,2.539,0,0,0,.939,1.426,3.154,3.154,0,0,0,1.854.474,2.72,2.72,0,0,0,1.819-.522,2.582,2.582,0,0,0,.808-1.462,10.6,10.6,0,0,0,.2-2.2v-1.26H64.9v1.141A10.28,10.28,0,0,1,64.5,36.5a3.836,3.836,0,0,1-1.379,2.033,4.594,4.594,0,0,1-2.794.737A4.869,4.869,0,0,1,57.323,38.46Zm43.826.571,4.065-19.256h1.9L111.2,39.029l-1.783,0-.95-5.16h-4.588l-.974,5.16h-1.76Zm5.04-16.856-2.044,10.389h4.089l-2.045-10.389h0ZM94.444,39.031H92.637V19.775H97.25a5.04,5.04,0,0,1,2.733.642A3.482,3.482,0,0,1,101.4,22.2a7.887,7.887,0,0,1,.417,2.687,7.046,7.046,0,0,1-.439,2.508,3.874,3.874,0,0,1-1.451,1.842,4.646,4.646,0,0,1-2.651.689H94.445v9.105Zm0-10.461h2.306a4.44,4.44,0,0,0,1.889-.345A2.119,2.119,0,0,0,99.7,27.073a5.907,5.907,0,0,0,.332-2.187,7.307,7.307,0,0,0-.285-2.294,1.864,1.864,0,0,0-.987-1.141,4.908,4.908,0,0,0-1.985-.32H94.445ZM88.881,39.031,88.5,23.7,84.817,39.031H83.652L80.014,23.72l-.38,15.311h-1.5l.476-19.256h1.805l3.8,16.712L88.1,19.775H89.9l.475,19.256Zm38.18,0v-6.4L122.71,19.775h1.759l3.47,10.7,3.329-10.7h1.782L128.82,32.634v6.4Zm-6.751,0-6.158-15.119V39.03h-1.569V19.775h1.307l6.134,14.953V19.775h1.569V39.03ZM21.892,16.967,8.484,30.374,0,21.892,21.891,0,43.783,21.892,35.3,30.374Z" transform="translate(14 18)" fill="#525252"/>
    </g>
  </g>
</svg>
