<svg xmlns="http://www.w3.org/2000/svg" xmlns:xlink="http://www.w3.org/1999/xlink" width="330" height="210" viewBox="0 0 330 210">
  <defs>
    <filter id="Bg" x="0" y="0" width="330" height="210" filterUnits="userSpaceOnUse">
      <feOffset dy="12" input="SourceAlpha"/>
      <feGaussianBlur stdDeviation="12" result="blur"/>
      <feFlood flood-opacity="0.024"/>
      <feComposite operator="in" in2="blur"/>
      <feComposite in="SourceGraphic"/>
    </filter>
  </defs>
  <g id="_02" data-name="02" transform="translate(36 24)">
    <g transform="matrix(1, 0, 0, 1, -36, -24)" filter="url(#Bg)">
      <g id="Bg-2" data-name="Bg" transform="translate(36 24)" fill="#fff" stroke="#f8f8f8" stroke-width="1">
        <rect width="258" height="138" rx="19" stroke="none"/>
        <rect x="0.5" y="0.5" width="257" height="137" rx="18.5" fill="none"/>
      </g>
    </g>
    <g id="logo" transform="translate(48 18.642)">
      <path id="Clip" d="M0,0H162V100H0Z" fill="none"/>
      <path id="Combined_Shape" data-name="Combined Shape" d="M17.988,60.232a3.63,3.63,0,0,1-1.4-1.523,5.46,5.46,0,0,1,0-4.532,3.663,3.663,0,0,1,1.4-1.535,4.139,4.139,0,0,1,2.184-.553,3.921,3.921,0,0,1,2.478.751,3.274,3.274,0,0,1,1.206,2.106H22.164a1.807,1.807,0,0,0-.666-1.074,2.165,2.165,0,0,0-1.35-.391,2.248,2.248,0,0,0-1.824.792,3.9,3.9,0,0,0,0,4.338,2.255,2.255,0,0,0,1.824.786,2.268,2.268,0,0,0,1.35-.364,1.689,1.689,0,0,0,.666-1.015h1.692a3.162,3.162,0,0,1-1.206,2.028,3.98,3.98,0,0,1-2.478.733A4.179,4.179,0,0,1,17.988,60.232Zm11.237-.006A3.931,3.931,0,0,1,27.75,58.7a5.061,5.061,0,0,1,0-4.524,3.931,3.931,0,0,1,1.476-1.53,4.659,4.659,0,0,1,4.4,0,3.869,3.869,0,0,1,1.476,1.53,5.107,5.107,0,0,1,0,4.524,3.869,3.869,0,0,1-1.476,1.53,4.659,4.659,0,0,1-4.4,0Zm.283-5.964a3.637,3.637,0,0,0,0,4.344,2.716,2.716,0,0,0,3.834,0,3.662,3.662,0,0,0,0-4.344,2.716,2.716,0,0,0-3.834,0Zm32.363,6.374H60.264l3.071-8.4h1.729l3.072,8.4H66.5l-.671-1.945H62.556l-.684,1.945h0Zm1.1-3.145h2.436L64.188,54ZM1.608,60.635H0l3.073-8.4H4.8l3.072,8.4H6.241l-.671-1.945H2.293l-.684,1.945h0Zm1.1-3.145H5.148L3.924,54Zm50.963,3.144H52.14v-8.4h3.108a3.666,3.666,0,0,1,1.668.336,2.264,2.264,0,0,1,.985.925,2.812,2.812,0,0,1,.012,2.6,2.294,2.294,0,0,1-.972.935,3.59,3.59,0,0,1-1.692.355H53.675v3.251h0Zm0-4.5h1.477a1.6,1.6,0,0,0,1.157-.354,1.312,1.312,0,0,0,.355-.967,1.327,1.327,0,0,0-.355-.977,1.6,1.6,0,0,0-1.157-.355H53.675Zm-6.983,4.5v-5.8l-2.339,4.6H43.141l-2.341-4.6v5.8H39.264v-8.4h1.823l2.677,5.328,2.64-5.328h1.823v8.4Zm37.908,0V57.645l-2.82-5.412h1.74l1.858,3.876,1.85-3.876h1.716l-2.808,5.412v2.988Zm-7.621,0-3.948-5.9v5.9H71.5v-8.4h1.535l3.948,5.916V52.233h1.536v8.4ZM58.951,43.443H15.508V0L32.165,16.657V0L75.608,43.443Z" transform="translate(37 20)" fill="#525252"/>
    </g>
  </g>
</svg>
