<svg xmlns="http://www.w3.org/2000/svg" xmlns:xlink="http://www.w3.org/1999/xlink" width="330" height="210" viewBox="0 0 330 210">
  <defs>
    <filter id="bg" x="0" y="0" width="330" height="210" filterUnits="userSpaceOnUse">
      <feOffset dy="12" input="SourceAlpha"/>
      <feGaussianBlur stdDeviation="12" result="blur"/>
      <feFlood flood-opacity="0.024"/>
      <feComposite operator="in" in2="blur"/>
      <feComposite in="SourceGraphic"/>
    </filter>
  </defs>
  <g id="_03" data-name="03" transform="translate(36 24)">
    <g transform="matrix(1, 0, 0, 1, -36, -24)" filter="url(#bg)">
      <g id="bg-2" data-name="bg" transform="translate(36 24)" fill="#fff" stroke="#f8f8f8" stroke-width="1">
        <rect width="258" height="138" rx="19" stroke="none"/>
        <rect x="0.5" y="0.5" width="257" height="137" rx="18.5" fill="none"/>
      </g>
    </g>
    <g id="logo" transform="translate(48 18.642)">
      <path id="Clip" d="M0,0H162V100H0Z" fill="none"/>
      <path id="Combined_Shape" data-name="Combined Shape" d="M18.411,57.922a30.246,30.246,0,1,1,11.733,2.369A30.029,30.029,0,0,1,18.411,57.922Zm13.5-38.016a8.469,8.469,0,1,0,8.469-8.469A8.478,8.478,0,0,0,31.916,19.906ZM122.807,46.77a2.1,2.1,0,0,1-1.045-1.908A2.3,2.3,0,0,1,122.807,43a3.708,3.708,0,0,1-.555-.307,2.984,2.984,0,0,1-.41-.338V41.98l1.4-1.481a2.7,2.7,0,0,1-.933-2.109,2.782,2.782,0,0,1,1.514-2.512,3.69,3.69,0,0,1,1.755-.387,4,4,0,0,1,1.256.193h3.028v1.256l-1.369.1a2.993,2.993,0,0,1-.064,2.818,2.755,2.755,0,0,1-1.121,1.047,3.667,3.667,0,0,1-1.73.387,4.389,4.389,0,0,1-1.079-.129l-.6.6a2.915,2.915,0,0,0,.741.24,14.962,14.962,0,0,0,1.514.193,4.2,4.2,0,0,1,2.318.758,2.1,2.1,0,0,1,.725,1.69,2.557,2.557,0,0,1-.387,1.345,2.775,2.775,0,0,1-1.191,1.03,4.723,4.723,0,0,1-2.061.394A5.292,5.292,0,0,1,122.807,46.77Zm1.04-2.746a1.129,1.129,0,0,0-.2.629.964.964,0,0,0,.555.893,2.866,2.866,0,0,0,1.361.3,2.278,2.278,0,0,0,1.256-.315.969.969,0,0,0,.482-.846.943.943,0,0,0-.314-.724,2.136,2.136,0,0,0-1.247-.354c-.456-.035-.857-.082-1.224-.144A1.845,1.845,0,0,0,123.846,44.024Zm.668-6.586a1.363,1.363,0,0,0,0,1.934,1.611,1.611,0,0,0,1.063.338,1.59,1.59,0,0,0,1.039-.338,1.345,1.345,0,0,0,0-1.934,1.588,1.588,0,0,0-1.039-.337A1.609,1.609,0,0,0,124.514,37.438Zm8.269,5.894a3.908,3.908,0,0,1-1.466-1.474,4.653,4.653,0,0,1,.008-4.363,3.972,3.972,0,0,1,1.472-1.472,4.33,4.33,0,0,1,4.155,0,3.9,3.9,0,0,1,1.464,1.472,4.677,4.677,0,0,1,0,4.363,3.893,3.893,0,0,1-1.472,1.474,4.336,4.336,0,0,1-4.162,0Zm.692-5.45a3.03,3.03,0,0,0,0,3.589,1.881,1.881,0,0,0,1.392.606,1.905,1.905,0,0,0,1.4-.606,3,3,0,0,0,0-3.589,1.918,1.918,0,0,0-2.793,0Zm-18.789,5.45a3.908,3.908,0,0,1-1.466-1.474,4.653,4.653,0,0,1,.008-4.363,3.965,3.965,0,0,1,1.472-1.472,4.33,4.33,0,0,1,4.155,0,3.905,3.905,0,0,1,1.464,1.472,4.677,4.677,0,0,1,0,4.363,3.9,3.9,0,0,1-1.472,1.474,4.336,4.336,0,0,1-4.162,0Zm.692-5.45a3.03,3.03,0,0,0,0,3.589,1.879,1.879,0,0,0,1.392.606,1.907,1.907,0,0,0,1.4-.606,3,3,0,0,0,0-3.589,1.918,1.918,0,0,0-2.793,0ZM77.436,43.348A3.748,3.748,0,0,1,75.971,41.9a4.308,4.308,0,0,1-.531-2.158,4.578,4.578,0,0,1,.523-2.206,3.8,3.8,0,0,1,1.45-1.5,4.276,4.276,0,0,1,2.182-.539,4.128,4.128,0,0,1,2.076.515,3.727,3.727,0,0,1,1.409,1.409,3.985,3.985,0,0,1,.508,1.989c0,.118,0,.243-.008.371s-.013.257-.023.4h-6.07a2.082,2.082,0,0,0,.652,1.464,2.055,2.055,0,0,0,1.425.531,1.9,1.9,0,0,0,1.055-.281,1.764,1.764,0,0,0,.635-.733h2.093a3.812,3.812,0,0,1-.748,1.377,3.712,3.712,0,0,1-1.288.973,4.109,4.109,0,0,1-1.731.355A4.377,4.377,0,0,1,77.436,43.348Zm.821-5.756a1.978,1.978,0,0,0-.74,1.3h3.977a1.76,1.76,0,0,0-.58-1.255,1.94,1.94,0,0,0-1.319-.467A2.207,2.207,0,0,0,78.257,37.592Zm26.212,6.079V32.4h2.062V42.06h4.991v1.611Zm-7.1,0a3.1,3.1,0,0,1-2.013-.613,2.657,2.657,0,0,1-.756-2.172V37.407H93.23V35.685H94.6l.242-2.143H96.66v2.143h2.157v1.722H96.66V40.9a1.018,1.018,0,0,0,.25.8,1.317,1.317,0,0,0,.86.217h1v1.756Zm-7.1,0-2.013-2.834-2.028,2.834H84.021l2.9-3.994-2.9-3.992h2.206l2.028,2.833,2.013-2.833H92.49l-2.914,3.992,2.914,3.994Zm-19.966,0V34.058H67.018V32.4h8.647v1.659h-3.3v9.613Zm64.339-15.779,1.852-4.074h-.483L132.9,16.363h2.238l2.238,5.62,2.335-5.62h2.19l-5.072,11.529Zm-28.241,0h-2.06V16.363h1.835l.226,1.143a3.705,3.705,0,0,1,1.022-.933,3.056,3.056,0,0,1,1.651-.4,3.762,3.762,0,0,1,2.012.547,3.943,3.943,0,0,1,1.4,1.5A4.491,4.491,0,0,1,113,20.372a4.44,4.44,0,0,1-.515,2.149,3.912,3.912,0,0,1-1.4,1.481,3.822,3.822,0,0,1-2.012.539A3.5,3.5,0,0,1,107.5,24.2a2.854,2.854,0,0,1-1.094-.95V27.89h0Zm.6-9.249a2.632,2.632,0,0,0,0,3.43,2.334,2.334,0,0,0,3.261.008,2.349,2.349,0,0,0,.645-1.707,2.407,2.407,0,0,0-.645-1.723A2.313,2.313,0,0,0,107,18.642ZM69.852,23.809a4.882,4.882,0,0,1-1.884-2.045,6.664,6.664,0,0,1-.661-3.035,6.715,6.715,0,0,1,.661-3.043,4.924,4.924,0,0,1,1.884-2.061,5.557,5.557,0,0,1,2.93-.741,5.26,5.26,0,0,1,3.324,1.006,4.393,4.393,0,0,1,1.62,2.826h-2.27a2.425,2.425,0,0,0-.9-1.441,2.9,2.9,0,0,0-1.811-.524A3.01,3.01,0,0,0,70.3,15.816a4.416,4.416,0,0,0-.886,2.914,4.384,4.384,0,0,0,.886,2.907,3.451,3.451,0,0,0,4.258.563,2.266,2.266,0,0,0,.9-1.361h2.27a4.235,4.235,0,0,1-1.62,2.721,5.345,5.345,0,0,1-3.324.984A5.6,5.6,0,0,1,69.852,23.809Zm46.049.4a2.3,2.3,0,0,1-.983-.878,2.356,2.356,0,0,1-.322-1.208,2.206,2.206,0,0,1,.87-1.8,4.153,4.153,0,0,1,2.609-.692H120.1v-.194a1.483,1.483,0,0,0-.467-1.208,1.765,1.765,0,0,0-1.159-.386,1.991,1.991,0,0,0-1.094.3,1.288,1.288,0,0,0-.58.878h-2.013a2.817,2.817,0,0,1,.589-1.513,3.3,3.3,0,0,1,1.313-.99,4.525,4.525,0,0,1,1.8-.347,3.986,3.986,0,0,1,2.689.853,3.046,3.046,0,0,1,.982,2.416V24.35h-1.755l-.193-1.289a2.984,2.984,0,0,1-.99,1.063,2.935,2.935,0,0,1-1.634.419A3.8,3.8,0,0,1,115.9,24.213Zm1.223-3a.924.924,0,0,0-.354.733.848.848,0,0,0,.354.725,1.562,1.562,0,0,0,.934.257,1.717,1.717,0,0,0,1.377-.58,2.827,2.827,0,0,0,.62-1.433H118.3A1.845,1.845,0,0,0,117.124,21.218ZM81.245,24.011a3.912,3.912,0,0,1-1.466-1.473,4.324,4.324,0,0,1-.539-2.182,4.274,4.274,0,0,1,.547-2.181A3.967,3.967,0,0,1,81.259,16.7a4.324,4.324,0,0,1,4.155,0,3.914,3.914,0,0,1,1.464,1.473,4.677,4.677,0,0,1,0,4.363,3.9,3.9,0,0,1-1.472,1.473,4.342,4.342,0,0,1-4.162,0Zm.692-5.45a2.481,2.481,0,0,0-.589,1.795,2.486,2.486,0,0,0,.589,1.8,1.886,1.886,0,0,0,1.392.6,1.914,1.914,0,0,0,1.4-.6,2.473,2.473,0,0,0,.6-1.8,2.467,2.467,0,0,0-.6-1.795,1.916,1.916,0,0,0-2.793,0Zm47.955,5.789V20.034a2.564,2.564,0,0,0-.417-1.578,1.538,1.538,0,0,0-1.3-.547,1.841,1.841,0,0,0-1.425.611,2.451,2.451,0,0,0-.556,1.707V24.35h-2.06V16.363h1.819l.161,1.352a2.808,2.808,0,0,1,1.071-1.127,3.152,3.152,0,0,1,1.65-.418,2.908,2.908,0,0,1,2.3.932,4.036,4.036,0,0,1,.821,2.739V24.35Zm-29.576,0V20.034a2.676,2.676,0,0,0-.4-1.578,1.4,1.4,0,0,0-1.216-.547,1.658,1.658,0,0,0-1.345.612,2.6,2.6,0,0,0-.507,1.705v4.122H94.792V20.034a2.628,2.628,0,0,0-.4-1.578,1.437,1.437,0,0,0-1.239-.547,1.641,1.641,0,0,0-1.328.612,2.6,2.6,0,0,0-.508,1.705v4.122H89.253V16.363h1.821l.175,1.079a2.845,2.845,0,0,1,1.023-.926,3.028,3.028,0,0,1,1.473-.346A2.734,2.734,0,0,1,96.369,17.6a3.117,3.117,0,0,1,1.168-1.048,3.381,3.381,0,0,1,1.6-.385,3.055,3.055,0,0,1,2.4.933,3.977,3.977,0,0,1,.837,2.737v4.508Z" transform="translate(10 20)" fill="#525252"/>
    </g>
  </g>
</svg>
