<svg xmlns="http://www.w3.org/2000/svg" xmlns:xlink="http://www.w3.org/1999/xlink" width="330" height="210" viewBox="0 0 330 210">
  <defs>
    <filter id="bg" x="0" y="0" width="330" height="210" filterUnits="userSpaceOnUse">
      <feOffset dy="12" input="SourceAlpha"/>
      <feGaussianBlur stdDeviation="12" result="blur"/>
      <feFlood flood-opacity="0.024"/>
      <feComposite operator="in" in2="blur"/>
      <feComposite in="SourceGraphic"/>
    </filter>
  </defs>
  <g id="_04" data-name="04" transform="translate(36 24)">
    <g transform="matrix(1, 0, 0, 1, -36, -24)" filter="url(#bg)">
      <g id="bg-2" data-name="bg" transform="translate(36 24)" fill="#fff" stroke="#f8f8f8" stroke-width="1">
        <rect width="258" height="138" rx="19" stroke="none"/>
        <rect x="0.5" y="0.5" width="257" height="137" rx="18.5" fill="none"/>
      </g>
    </g>
    <g id="logo" transform="translate(48 18.642)">
      <path id="Clip" d="M0,0H162V100H0Z" fill="none"/>
      <path id="Combined_Shape" data-name="Combined Shape" d="M68.885,34.311a1.677,1.677,0,0,1-.636-.7,2.294,2.294,0,0,1-.228-1.048,2.258,2.258,0,0,1,.233-1.047,1.752,1.752,0,0,1,.661-.712,1.947,1.947,0,0,1,1.016-.256,1.845,1.845,0,0,1,1.107.319,1.473,1.473,0,0,1,.574.887H70.95a.853.853,0,0,0-.349-.487,1.155,1.155,0,0,0-.669-.178,1.213,1.213,0,0,0-.958.393,1.862,1.862,0,0,0-.005,2.164,1.156,1.156,0,0,0,.913.388,1.1,1.1,0,0,0,.867-.327,1.477,1.477,0,0,0,.34-.869H70.036v-.453h1.644v2.1h-.537l-.049-.571a1.408,1.408,0,0,1-.488.471,1.546,1.546,0,0,1-.764.167A1.794,1.794,0,0,1,68.885,34.311Zm-40.13-.005a1.791,1.791,0,0,1-.676-.7,2.364,2.364,0,0,1,0-2.088,1.78,1.78,0,0,1,.676-.706,2.125,2.125,0,0,1,2.014,0,1.761,1.761,0,0,1,.673.706,2.372,2.372,0,0,1,0,2.088,1.766,1.766,0,0,1-.673.7,2.112,2.112,0,0,1-2.014,0Zm.309-3.049a1.193,1.193,0,0,0-.462.509,2.015,2.015,0,0,0,0,1.583,1.2,1.2,0,0,0,.462.509,1.372,1.372,0,0,0,.7.177,1.347,1.347,0,0,0,.695-.177,1.218,1.218,0,0,0,.463-.509,1.965,1.965,0,0,0,0-1.583,1.212,1.212,0,0,0-.463-.509,1.328,1.328,0,0,0-.695-.178A1.355,1.355,0,0,0,29.064,31.256Zm-5.443,3.051a1.68,1.68,0,0,1-.645-.7,2.534,2.534,0,0,1,0-2.092,1.689,1.689,0,0,1,.645-.706,1.873,1.873,0,0,1,.993-.255,1.776,1.776,0,0,1,1.113.331,1.472,1.472,0,0,1,.548.93h-.653a.921.921,0,0,0-.333-.535,1.066,1.066,0,0,0-.681-.2,1.14,1.14,0,0,0-.918.4,1.911,1.911,0,0,0,0,2.166,1.149,1.149,0,0,0,.918.393,1.114,1.114,0,0,0,.681-.188.871.871,0,0,0,.333-.515h.653a1.43,1.43,0,0,1-.548.9,1.792,1.792,0,0,1-1.113.328A1.889,1.889,0,0,1,23.621,34.307Zm-11.649.09a1.231,1.231,0,0,1-.531-.5,1.7,1.7,0,0,1-.2-.859V30.619h.587v2.425a1,1,0,0,0,.244.746,1.022,1.022,0,0,0,1.312,0,1,1,0,0,0,.243-.746V30.619h.587v2.419a1.645,1.645,0,0,1-.2.859,1.273,1.273,0,0,1-.545.5,1.8,1.8,0,0,1-1.5,0Zm-5.332-.092a1.783,1.783,0,0,1-.675-.7,2.364,2.364,0,0,1,0-2.088,1.789,1.789,0,0,1,.675-.706,1.952,1.952,0,0,1,1.008-.254,1.951,1.951,0,0,1,1.007.254,1.761,1.761,0,0,1,.673.706,2.388,2.388,0,0,1,0,2.088,1.778,1.778,0,0,1-.673.7,1.945,1.945,0,0,1-1.007.256A1.949,1.949,0,0,1,6.639,34.305Zm.31-3.049a1.177,1.177,0,0,0-.462.509,2.015,2.015,0,0,0,0,1.583,1.182,1.182,0,0,0,.462.509,1.372,1.372,0,0,0,.7.177,1.35,1.35,0,0,0,.695-.177,1.218,1.218,0,0,0,.463-.509,1.975,1.975,0,0,0,0-1.583,1.212,1.212,0,0,0-.463-.509,1.33,1.33,0,0,0-.695-.178A1.35,1.35,0,0,0,6.949,31.256ZM101.2,34.5h-.586V30.62h1.335a1.64,1.64,0,0,1,.756.154,1.026,1.026,0,0,1,.439.419,1.187,1.187,0,0,1,.145.585,1.173,1.173,0,0,1-.191.652,1.061,1.061,0,0,1-.6.42l.825,1.643-.681,0-.752-1.562H101.2V34.5h0Zm0-2.006h.715a.774.774,0,0,0,.585-.194.7.7,0,0,0,.185-.5.683.683,0,0,0-.184-.5.811.811,0,0,0-.592-.185H101.2ZM16.608,34.5h-.586V30.62h1.335a1.64,1.64,0,0,1,.756.154,1.018,1.018,0,0,1,.44.419,1.234,1.234,0,0,1-.047,1.237,1.065,1.065,0,0,1-.595.42l.824,1.643-.68,0L17.3,32.933h-.693V34.5h0Zm0-2.006h.715a.783.783,0,0,0,.584-.194.7.7,0,0,0,.185-.5.683.683,0,0,0-.183-.5.813.813,0,0,0-.593-.185h-.709Zm49.226,1.058H64.252l-.332.947H63.3l1.428-3.875h.642l1.417,3.874-.619,0Zm-1.417-.466h1.252l-.626-1.766ZM45.4,33.548H43.818l-.331.947h-.62l1.427-3.875h.643l1.418,3.874-.62,0Zm-1.417-.466h1.251l-.625-1.766ZM39.815,34.5h-.586V30.62h1.357a1.627,1.627,0,0,1,.752.151,1.022,1.022,0,0,1,.445.416,1.19,1.19,0,0,1,.147.595,1.215,1.215,0,0,1-.14.579,1,1,0,0,1-.44.418,1.688,1.688,0,0,1-.764.155h-.77v1.562h0Zm0-2.043h.743a.821.821,0,0,0,.595-.18.673.673,0,0,0,.18-.491.685.685,0,0,0-.18-.5.818.818,0,0,0-.595-.18h-.743Zm65.218,2.042V30.62H107.5V31.1h-1.877V32.3h1.711v.464h-1.711v1.251H107.5v.477Zm-8.631,0V30.62h2.464V31.1H96.99V32.3H98.7v.464H96.99v1.251h1.877v.477Zm-2.423,0V32.761H92.1v1.733h-.588V30.62H92.1v1.66h1.877V30.62h.587v3.875Zm-9.125,0V30.62H87.32V31.1H85.442V32.3h1.712v.464H85.442v1.251H87.32v.477Zm-2.424,0-1.943-2.918v2.918H79.9V30.62h.587l1.943,2.917V30.62h.587v3.875Zm-4.955,0V30.62h.588v3.875Zm-4.03,0V30.62h.587v3.41h1.761v.464Zm-12.8,0V31.1H59.5v-.476H62.37V31.1H61.23v3.4Zm-6.752,0v-1.43L52.6,30.62h.664l.913,1.87.909-1.87h.657l-1.272,2.444v1.43Zm-3.413,0-1.944-2.918v2.918h-.586V30.62h.586l1.944,2.917V30.62h.588v3.875Zm-13.673,0V31.632l-1.185,2.308h-.454l-1.191-2.3v2.857h-.587V30.62h.693L35.393,33.2,36.7,30.62h.691v3.875Zm-34.084,0v-1.43L1.436,30.62H2.1l.914,1.87.909-1.87h.657L3.307,33.064v1.43Zm1.22-8.607a5.06,5.06,0,0,1-1.953-1.013A5.584,5.584,0,0,1,.56,23.013,6.6,6.6,0,0,1,0,20.1V5.93A6.279,6.279,0,0,1,.433,3.579,5.555,5.555,0,0,1,1.663,1.7,5.715,5.715,0,0,1,3.561.453,6.351,6.351,0,0,1,6,0a5.593,5.593,0,0,1,4.231,1.7A6.05,6.05,0,0,1,11.479,3.67a6.649,6.649,0,0,1,.453,2.477V7.593H8.243V6.363a2.989,2.989,0,0,0-.615-1.88,2,2,0,0,0-1.663-.795,1.877,1.877,0,0,0-1.826.849A4.557,4.557,0,0,0,3.687,6.69V19.85a3.4,3.4,0,0,0,.489,1.88,1.922,1.922,0,0,0,1.753.759,2.666,2.666,0,0,0,.777-.127,2.315,2.315,0,0,0,.779-.415,2.2,2.2,0,0,0,.542-.8,3.205,3.205,0,0,0,.217-1.264V18.619h3.688V20.21a5.726,5.726,0,0,1-.453,2.26,6.245,6.245,0,0,1-1.247,1.9,6.035,6.035,0,0,1-1.863,1.32,5.439,5.439,0,0,1-2.3.488A8.294,8.294,0,0,1,3.941,25.888Zm15.094-.109a5.773,5.773,0,0,1-1.97-1.193,5.5,5.5,0,0,1-1.446-1.916,6.514,6.514,0,0,1-.543-2.785V6.291a6.575,6.575,0,0,1,.543-2.748,5.788,5.788,0,0,1,1.446-1.988A6.118,6.118,0,0,1,19.035.4a6.413,6.413,0,0,1,4.447,0,6.586,6.586,0,0,1,2.007,1.157A6.06,6.06,0,0,1,26.9,3.543a6.589,6.589,0,0,1,.543,2.748V19.885a6.528,6.528,0,0,1-.543,2.785,5.75,5.75,0,0,1-1.409,1.916,6.192,6.192,0,0,1-2.007,1.193,6.426,6.426,0,0,1-4.447,0Zm81.149.18V15.076L95.124.217h3.9l2.965,10.231h.072L105.03.217h3.9l-5.062,14.859V25.959Zm-10.592,0L83.952,10.485h-.073V25.959H80.192V.217h3.543L89.3,15.728h.072V.217h3.688V25.959Zm-15.113,0L73.4,20.428H68.369l-1.086,5.531H63.6L69.346.217h3.072l5.748,25.742Zm-22.958,0V.217h5.531a8.244,8.244,0,0,1,2.677.4,5.155,5.155,0,0,1,2.1,1.41,5.5,5.5,0,0,1,1.3,2.368,14.766,14.766,0,0,1,.361,3.67,18.368,18.368,0,0,1-.2,2.929,6.1,6.1,0,0,1-.85,2.241A5.366,5.366,0,0,1,60.414,15.2a6.83,6.83,0,0,1-3.326.706H55.209V25.959Zm-7.521,0V10.3h-.072l-3.65,11.064H38.433L34.816,10.3h-.072V25.959H31.055V.217H34.6l4.737,13.631h.072L44.108.217h3.578V25.959Z" transform="translate(27 33)" fill="#525252"/>
    </g>
  </g>
</svg>
