<svg xmlns="http://www.w3.org/2000/svg" xmlns:xlink="http://www.w3.org/1999/xlink" width="183" height="183" viewBox="0 0 183 183">
  <defs>
    <clipPath id="clip-path">
      <circle id="Ellipse_2" data-name="Ellipse 2" cx="91.5" cy="91.5" r="91.5" transform="translate(681 1387)" fill="#fff"/>
    </clipPath>
  </defs>
  <g id="Mask_Group_14" data-name="Mask Group 14" transform="translate(-681 -1387)" clip-path="url(#clip-path)">
    <g id="shop" transform="translate(666.343 1413.596)">
      <path id="Path_9" data-name="Path 9" d="M154.571,244.6H69.09a3.73,3.73,0,0,1-3.724-3.944l4.376-76.313a3.73,3.73,0,0,1,3.724-3.517h76.728a3.731,3.731,0,0,1,3.724,3.517l4.376,76.313A3.73,3.73,0,0,1,154.571,244.6Z" transform="translate(-5.674 -121.624)" fill="#bdd6fb"/>
      <g id="Group_18" data-name="Group 18" transform="translate(71.729 45.052)">
        <circle id="Ellipse_9" data-name="Ellipse 9" cx="5.066" cy="5.066" r="5.066" transform="translate(0 0)" fill="#ed5610"/>
        <circle id="Ellipse_10" data-name="Ellipse 10" cx="5.066" cy="5.066" r="5.066" transform="translate(58.723 0)" fill="#ed5610"/>
      </g>
      <path id="Path_16" data-name="Path 16" d="M155.585,155.153h0c0,1.01,1.284,1.829,2.867,1.829h70.982c1.583,0,2.867-.819,2.867-1.829h0c0-1.01-1.284-1.829-2.867-1.829H158.452C156.869,153.324,155.585,154.143,155.585,155.153Z" transform="translate(-88.018 -115.949)" fill="#144a9a"/>
      <path id="Path_11" data-name="Path 11" d="M129.868,55.184h.019a1.846,1.846,0,0,0,1.81-1.861V31.517a27.534,27.534,0,1,1,55.065-.326V53.323a1.846,1.846,0,0,0,1.81,1.861h.039a1.846,1.846,0,0,0,1.81-1.861V31.558a31.193,31.193,0,1,0-62.383-.367V53.323a1.845,1.845,0,0,0,1.81,1.861Z" transform="translate(-53.073 0)" fill="#ff5e14" stroke="#ff5e14" stroke-width="1"/>
      <g id="Group_19" data-name="Group 19" transform="translate(75.998 73.54)">
        <path id="Path_12" data-name="Path 12" d="M141.866,316.776c0-4.947-9.084-3.018-9.084-9.727,0-4.137,3.466-5.366,6.456-5.366,1.817,0,5.087.475,5.087,2.013,0,.559-.391,1.593-1.23,1.593-.755,0-1.481-1.062-3.857-1.062-2.04,0-3.494.782-3.494,2.543,0,4.137,9.084,2.264,9.084,9.7,0,4-2.683,5.953-6.373,5.953-3.634,0-6.177-1.9-6.177-3.3,0-.671.587-1.593,1.286-1.593,1.006,0,1.677,2.208,4.78,2.208C140.357,319.739,141.866,318.788,141.866,316.776Z" transform="translate(-132.279 -301.683)" fill="#144a9a"/>
        <path id="Path_13" data-name="Path 13" d="M205.15,313.039h-6.959v8.441c0,.643-.727.978-1.481.978-.727,0-1.481-.335-1.481-.978v-18.5c0-.671.755-.95,1.481-.95.755,0,1.481.28,1.481.95v7.714h6.959v-7.714c0-.671.755-.95,1.481-.95.755,0,1.481.28,1.481.95v18.5c0,.643-.727.978-1.481.978-.727,0-1.481-.335-1.481-.978Z" transform="translate(-179.883 -301.942)" fill="#144a9a"/>
        <path id="Path_14" data-name="Path 14" d="M262.419,316.393V308.26c0-4.528,2.711-6.233,6.261-6.233,3.522,0,6.289,1.7,6.289,6.233v8.133c0,4.528-2.767,6.233-6.289,6.233C265.13,322.626,262.419,320.921,262.419,316.393Zm9.587-8.133c0-2.46-1.258-3.606-3.326-3.606-2.1,0-3.3,1.146-3.3,3.606v8.133c0,2.46,1.2,3.606,3.3,3.606,2.068,0,3.326-1.146,3.326-3.606Z" transform="translate(-230.695 -301.943)" fill="#144a9a"/>
        <path id="Path_15" data-name="Path 15" d="M328.118,302.977a1.036,1.036,0,0,1,1.146-.95h5.45c3.438,0,6.121,1.649,6.121,6.149v.224c0,4.472-2.767,6.177-6.289,6.177h-3.466v6.9c0,.643-.727.978-1.481.978-.727,0-1.481-.335-1.481-.978Zm2.963,1.677v7.574h3.466c2.068,0,3.326-1.174,3.326-3.634v-.335c0-2.46-1.258-3.606-3.326-3.606Z" transform="translate(-280.379 -301.943)" fill="#144a9a"/>
      </g>
      <path id="Path_17" data-name="Path 17" d="M154.448,234.877l-4.376-76.313a5.564,5.564,0,0,0-5.551-5.241h-2.287a1.829,1.829,0,0,0-1.829,1.829h0a1.829,1.829,0,0,0,1.829,1.829h2.287a1.9,1.9,0,0,1,1.9,1.792l4.373,76.249a1.983,1.983,0,0,1-.442,1.4,1.886,1.886,0,0,1-1.452.674H63.481a1.982,1.982,0,0,1-1.373-.522,1.885,1.885,0,0,1-.589-1.488L65.9,158.773a1.9,1.9,0,0,1,1.9-1.792h2.287a1.829,1.829,0,0,0,1.829-1.829h0a1.829,1.829,0,0,0-1.829-1.829H67.793a5.564,5.564,0,0,0-5.551,5.241l-4.376,76.313a5.56,5.56,0,0,0,5.551,5.878H148.9a5.559,5.559,0,0,0,5.55-5.878Z" transform="translate(0 -115.948)" fill="#144a9a" stroke="#144a9a" stroke-width="1"/>
    </g>
  </g>
</svg>
