<svg xmlns="http://www.w3.org/2000/svg" xmlns:xlink="http://www.w3.org/1999/xlink" width="183" height="183" viewBox="0 0 183 183">
  <defs>
    <clipPath id="clip-path">
      <circle id="Ellipse_3" data-name="Ellipse 3" cx="91.5" cy="91.5" r="91.5" transform="translate(1111 1387)" fill="#333"/>
    </clipPath>
  </defs>
  <g id="Mask_Group_15" data-name="Mask Group 15" transform="translate(-1111 -1387)" clip-path="url(#clip-path)">
    <g id="warehouse" transform="translate(1145.422 1418.157)">
      <path id="Path_18" data-name="Path 18" d="M160.069,107.7h-91.7V31.125l31.4-18.838V3.993h16.484a4.119,4.119,0,0,1,2.07.557l43.813,25.381A4.13,4.13,0,0,1,164.2,33.5v70.073a4.13,4.13,0,0,1-4.128,4.13Zm0,0" transform="translate(-50.45 -2.962)" fill="#bdd6fb"/>
      <path id="Path_19" data-name="Path 19" d="M157.1,105.775H65.41a1.033,1.033,0,0,1-1.032-1.032V28.162a1.034,1.034,0,0,1,.5-.886l30.9-18.539v-7.7A1.033,1.033,0,0,1,96.808,0h16.484a5.159,5.159,0,0,1,2.588.7l43.813,25.381a5.173,5.173,0,0,1,2.572,4.465v70.073a5.168,5.168,0,0,1-5.162,5.16Zm-90.662-2.064h90.664a3.1,3.1,0,0,0,3.1-3.1V30.542a3.109,3.109,0,0,0-1.542-2.679L114.844,2.482a3.1,3.1,0,0,0-1.552-.417H97.84V9.324a1.031,1.031,0,0,1-.5.885l-30.9,18.54V103.71Zm0,0" transform="translate(-47.488)" fill="#144a9a" stroke="#144a9a" stroke-width="1"/>
      <path id="Path_20" data-name="Path 20" d="M96.069,107.7H8.5a4.127,4.127,0,0,1-4.128-4.128V33.5a4.126,4.126,0,0,1,2.058-3.571L50.213,4.55a4.127,4.127,0,0,1,4.141,0L98.139,29.931A4.13,4.13,0,0,1,100.2,33.5v70.073a4.13,4.13,0,0,1-4.128,4.13Zm0,0" transform="translate(-2.963 -2.962)" fill="#bdd6fb"/>
      <path id="Path_22" data-name="Path 22" d="M93.1,105.785H5.538a5.166,5.166,0,0,1-5.16-5.16V30.552A5.178,5.178,0,0,1,2.95,26.088L46.732.706a5.186,5.186,0,0,1,5.175,0L95.692,26.088a5.178,5.178,0,0,1,2.572,4.465v70.073a5.165,5.165,0,0,1-5.16,5.16ZM49.321,2.075a3.079,3.079,0,0,0-1.552.417L3.984,27.873A3.11,3.11,0,0,0,2.44,30.552v70.073a3.1,3.1,0,0,0,3.1,3.1H93.1a3.1,3.1,0,0,0,3.1-3.1V30.552a3.109,3.109,0,0,0-1.542-2.679L50.874,2.492a3.083,3.083,0,0,0-1.553-.417Zm0,0" transform="translate(0 -0.01)" fill="#144a9a" stroke="#144a9a" stroke-width="1.5"/>
      <path id="Path_23" data-name="Path 23" d="M64.086,173.742h66.4v59.916h-66.4Zm0,0" transform="translate(-47.271 -128.915)" fill="#eee"/>
      <path id="Path_24" data-name="Path 24" d="M127.52,231.722h-66.4a1.032,1.032,0,0,1-1.032-1.032V170.774a1.032,1.032,0,0,1,1.032-1.032h66.4a1.033,1.033,0,0,1,1.032,1.032v59.914a1.033,1.033,0,0,1-1.032,1.034Zm-65.37-2.064h64.338V171.806H62.15Zm0,0" transform="translate(-44.303 -125.947)" fill="#144a9a" stroke="#144a9a" stroke-width="1.5"/>
      <path id="Path_25" data-name="Path 25" d="M372.82,105.152h16.512v2.064H372.82Zm0,0" transform="translate(-276.35 -78.022)" fill="#144a9a" stroke="#144a9a" stroke-width="1"/>
      <path id="Path_26" data-name="Path 26" d="M64.086,173.742h66.4v8.831h-66.4Zm0,0" transform="translate(-47.271 -128.915)" fill="#bdd6fb"/>
      <path id="Path_27" data-name="Path 27" d="M64.086,207.969h66.4v8.83h-66.4Zm0,0" transform="translate(-47.271 -154.311)" fill="#bdd6fb"/>
      <path id="Path_28" data-name="Path 28" d="M64.086,242.191h66.4v8.83h-66.4Zm0,0" transform="translate(-47.271 -179.704)" fill="#bdd6fb"/>
      <g id="Group_20" data-name="Group 20" transform="translate(15.783 43.798)">
        <path id="Path_29" data-name="Path 29" d="M127.52,180.646h-66.4a1.032,1.032,0,0,1-1.032-1.032v-8.828a1.031,1.031,0,0,1,1.032-1.032h66.4a1.032,1.032,0,0,1,1.032,1.032v8.828A1.033,1.033,0,0,1,127.52,180.646Zm-65.37-2.064h64.338v-6.764H62.15Zm0,0" transform="translate(-60.086 -169.754)" fill="#144a9a" stroke="#144a9a" stroke-width="1"/>
        <path id="Path_30" data-name="Path 30" d="M127.52,214.861h-66.4a1.032,1.032,0,0,1-1.032-1.032V205a1.032,1.032,0,0,1,1.032-1.032h66.4A1.033,1.033,0,0,1,128.552,205v8.828A1.033,1.033,0,0,1,127.52,214.861ZM62.15,212.8h64.338v-6.764H62.15Zm0,0" transform="translate(-60.086 -195.142)" fill="#144a9a" stroke="#144a9a" stroke-width="1"/>
        <path id="Path_31" data-name="Path 31" d="M127.52,249.077h-66.4a1.031,1.031,0,0,1-1.032-1.032v-8.83a1.032,1.032,0,0,1,1.032-1.032h66.4a1.033,1.033,0,0,1,1.032,1.032v8.83A1.031,1.031,0,0,1,127.52,249.077Zm-65.37-2.064h64.338v-6.766H62.15Zm0,0" transform="translate(-60.086 -220.528)" fill="#144a9a" stroke="#144a9a" stroke-width="1"/>
      </g>
      <path id="Path_32" data-name="Path 32" d="M201.051,364.77h28.2v25.543h-28.2Zm0,0" transform="translate(-148.898 -270.657)" fill="#f9dd9d"/>
      <path id="Path_33" data-name="Path 33" d="M226.282,388.369h-28.2a1.033,1.033,0,0,1-1.032-1.032V361.794a1.032,1.032,0,0,1,1.032-1.032h28.2a1.032,1.032,0,0,1,1.032,1.032v25.543a1.033,1.033,0,0,1-1.034,1.032ZM199.115,386.3h26.137V362.826H199.115Zm0,0" transform="translate(-145.93 -267.683)" fill="#63312d"/>
      <path id="Path_34" data-name="Path 34" d="M171.445,364.77h28.2v25.543h-28.2Zm0,0" transform="translate(-126.931 -270.657)" fill="#f9dd9d"/>
      <path id="Path_35" data-name="Path 35" d="M175.573,368.9h24.07V364.77h-28.2v25.543h4.128Zm0,0" transform="translate(-126.931 -270.657)" fill="#ffeecf"/>
      <path id="Path_36" data-name="Path 36" d="M196.669,388.369h-28.2a1.032,1.032,0,0,1-1.032-1.032V361.794a1.031,1.031,0,0,1,1.032-1.032h28.2a1.031,1.031,0,0,1,1.032,1.032v25.543A1.031,1.031,0,0,1,196.669,388.369ZM169.5,386.3h26.136V362.826H169.5Zm0,0" transform="translate(-123.957 -267.683)" fill="#ff5e14" stroke="#ff5e14" stroke-width="0.3"/>
      <path id="Path_37" data-name="Path 37" d="M213.906,364.77h6.288v8.514h-6.288Zm0,0" transform="translate(-158.437 -270.657)" fill="#f8f3f3"/>
      <path id="Path_38" data-name="Path 38" d="M217.226,371.34h-6.288a1.033,1.033,0,0,1-1.032-1.032v-8.514a1.032,1.032,0,0,1,1.032-1.032h6.288a1.032,1.032,0,0,1,1.032,1.032v8.514A1.031,1.031,0,0,1,217.226,371.34Zm-5.256-2.064h4.224v-6.45H211.97Zm0,0" transform="translate(-155.469 -267.683)" fill="#ff5e14"/>
      <path id="Path_39" data-name="Path 39" d="M310.348,364.77h28.2v25.543h-28.2Zm0,0" transform="translate(-229.996 -270.657)" fill="#f9dd9d"/>
      <path id="Path_40" data-name="Path 40" d="M335.58,388.369h-28.2a1.033,1.033,0,0,1-1.032-1.032V361.794a1.032,1.032,0,0,1,1.032-1.032h28.2a1.032,1.032,0,0,1,1.032,1.032v25.543A1.031,1.031,0,0,1,335.58,388.369ZM308.411,386.3h26.137V362.826H308.411Zm0,0" transform="translate(-227.027 -267.683)" fill="#ff5e14" stroke="#ff5e14" stroke-width="0.3"/>
      <path id="Path_41" data-name="Path 41" d="M280.738,364.77h28.2v25.543h-28.2Zm0,0" transform="translate(-208.026 -270.657)" fill="#f9dd9d"/>
      <path id="Path_42" data-name="Path 42" d="M284.559,368.587h24.38v-3.818h-28.2v25.543h3.821Zm0,0" transform="translate(-208.026 -270.656)" fill="#ffeecf"/>
      <path id="Path_43" data-name="Path 43" d="M305.971,388.369h-28.2a1.033,1.033,0,0,1-1.032-1.032V361.794a1.032,1.032,0,0,1,1.032-1.032h28.2A1.031,1.031,0,0,1,307,361.794v25.543A1.031,1.031,0,0,1,305.971,388.369ZM278.8,386.3h26.137V362.826H278.8Zm0,0" transform="translate(-205.058 -267.683)" fill="#ff5e14" stroke="#ff5e14" stroke-width="0.3"/>
      <path id="Path_44" data-name="Path 44" d="M323.211,364.77H329.5v8.514h-6.287Zm0,0" transform="translate(-239.54 -270.657)" fill="#f8f3f3"/>
      <path id="Path_45" data-name="Path 45" d="M326.53,371.34h-6.287a1.033,1.033,0,0,1-1.032-1.032v-8.514a1.032,1.032,0,0,1,1.032-1.032h6.287a1.031,1.031,0,0,1,1.032,1.032v8.514A1.031,1.031,0,0,1,326.53,371.34Zm-5.255-2.064H325.5v-6.45h-4.223Zm0,0" transform="translate(-236.572 -267.683)" fill="#ff5e14"/>
      <path id="Path_46" data-name="Path 46" d="M283.363,265.77h28.2v25.543h-28.2Zm0,0" transform="translate(-209.973 -197.2)" fill="#f9dd9d"/>
      <path id="Path_47" data-name="Path 47" d="M308.6,289.369H280.4a1.033,1.033,0,0,1-1.032-1.032V262.794a1.032,1.032,0,0,1,1.032-1.032h28.2a1.032,1.032,0,0,1,1.032,1.032v25.543A1.031,1.031,0,0,1,308.6,289.369ZM281.427,287.3h26.137V263.826H281.427Zm0,0" transform="translate(-207.005 -194.226)" fill="#ff5e14" stroke="#ff5e14" stroke-width="1"/>
      <path id="Path_48" data-name="Path 48" d="M253.758,265.77h28.2v25.543h-28.2Zm0,0" transform="translate(-188.007 -197.2)" fill="#f9dd9d"/>
      <path id="Path_49" data-name="Path 49" d="M257.576,269.587h24.382v-3.818h-28.2v25.543h3.818Zm0,0" transform="translate(-188.007 -197.199)" fill="#ffeecf"/>
      <path id="Path_50" data-name="Path 50" d="M278.99,289.369h-28.2a1.032,1.032,0,0,1-1.032-1.032V262.794a1.031,1.031,0,0,1,1.032-1.032h28.2a1.031,1.031,0,0,1,1.032,1.032v25.543A1.031,1.031,0,0,1,278.99,289.369ZM251.822,287.3h26.136V263.826H251.822Zm0,0" transform="translate(-185.039 -194.226)" fill="#ff5e14" stroke="#ff5e14" stroke-width="0.3"/>
      <path id="Path_51" data-name="Path 51" d="M296.227,265.77h6.288v8.514h-6.288Zm0,0" transform="translate(-219.518 -197.2)" fill="#f8f3f3"/>
      <path id="Path_52" data-name="Path 52" d="M299.545,272.34h-6.286a1.033,1.033,0,0,1-1.032-1.032v-8.514a1.032,1.032,0,0,1,1.032-1.032h6.286a1.032,1.032,0,0,1,1.032,1.032v8.514A1.031,1.031,0,0,1,299.545,272.34Zm-5.254-2.064h4.222v-6.45h-4.222Zm0,0" transform="translate(-216.55 -194.226)" fill="#ff5e14"/>
    </g>
  </g>
</svg>
