<svg xmlns="http://www.w3.org/2000/svg" xmlns:xlink="http://www.w3.org/1999/xlink" width="183" height="183" viewBox="0 0 183 183">
  <defs>
    <clipPath id="clip-path">
      <circle id="Ellipse_1" data-name="Ellipse 1" cx="91.5" cy="91.5" r="91.5" transform="translate(215 1387)" fill="#fff"/>
    </clipPath>
  </defs>
  <g id="Mask_Group_13" data-name="Mask Group 13" transform="translate(-215 -1387)" clip-path="url(#clip-path)">
    <g id="Layer_2" data-name="Layer 2" transform="translate(244.467 1416.467)">
      <circle id="Ellipse_8" data-name="Ellipse 8" cx="60" cy="60" r="60" transform="translate(2.533 2.533)" fill="#f0f0ff"/>
      <g id="Group_17" data-name="Group 17" transform="translate(2.985 2.985)">
        <path id="Path_3" data-name="Path 3" d="M86.627,66.3A59.448,59.448,0,0,1,11.14,60.246,25.777,25.777,0,0,1,24.757,47.264c9.925-3.97,17.865,15.88,34.975,5.518,11.791-7.106,21.815,5.161,26.9,13.517Z" transform="translate(7.003 42.058)" fill="#bdd6fb"/>
        <path id="Path_4" data-name="Path 4" d="M55.594,27.8c-17.865,5.955-25.8,5.955-23.819,17.865s-7.94,7.86-13.895,13.855.4,9.468,3.176,13.7c2.441,3.692,2.739,16.3-14.728,10.6A59.537,59.537,0,0,1,61.548,2c1.31,0,2.6.04,3.89.139C66.828,11.508,66.451,24.192,55.594,27.8Z" transform="translate(-2 -2)" fill="#bdd6fb"/>
        <path id="Path_5" data-name="Path 5" d="M82,58.534a59,59,0,0,1-7.841,29.516A10.8,10.8,0,0,1,68.7,72.191c4.585-8.2,1.389-23.581-4.565-16.832-5.955,6.769-13.895,3.176-14.073-1.151C49.9,49.9,54.206,44.64,44.282,29.991c-5.756-8.5-.814-18.242,4.347-24.931A59.487,59.487,0,0,1,82,58.534Z" transform="translate(37.101 1.014)" fill="#bdd6fb"/>
      </g>
      <path id="Path_7" data-name="Path 7" d="M62.533,1a61.533,61.533,0,1,0,61.533,61.533A61.533,61.533,0,0,0,62.533,1ZM120.1,62.533a57.2,57.2,0,0,1-6.711,26.934,8.2,8.2,0,0,1-3.646-4.334,9.644,9.644,0,0,1,.776-7.975c3.65-6.525,3.061-17.727-1.088-20.667-.768-.543-3.522-2.042-6.7,1.554a7.259,7.259,0,0,1-8,2.755,3.528,3.528,0,0,1-2.6-2.669,13.141,13.141,0,0,1,.3-2.546c.734-4.188,1.847-10.516-6.414-22.71C81.251,25.853,85,17.586,89.3,11.6A57.609,57.609,0,0,1,120.1,62.533ZM62.533,4.97c.717,0,1.426.028,2.137.054,1.027,8.6.2,18.915-8.719,21.882-2.892.964-5.525,1.772-7.893,2.5C35.675,33.2,28.853,35.3,30.8,46.98c.979,5.871-.962,6.484-5.214,7.826a18.332,18.332,0,0,0-8.13,4.3c-5.922,5.961-1.847,10.57.849,13.621A24.242,24.242,0,0,1,20.384,75.3a6.972,6.972,0,0,1-.143,6.992c-1.713,2.28-5.768,2.58-11.425.892A57.532,57.532,0,0,1,62.533,4.97ZM23.559,104.848a24.144,24.144,0,0,1,11.922-10.7c2.981-1.188,5.81.457,10.181,3.241,6.211,3.956,13.934,8.88,25.083,2.134,9.342-5.634,17.645,2.75,23.153,11.238a57.4,57.4,0,0,1-70.338-5.917Zm73.585,3.647C88.222,94.833,78.151,90.426,68.692,96.129c-9.033,5.468-15.066,1.632-20.9-2.084-4.313-2.747-8.768-5.585-13.788-3.58a28.117,28.117,0,0,0-13.384,11.468,57.8,57.8,0,0,1-9.815-14.166,22.5,22.5,0,0,0,4.289.474,9.71,9.71,0,0,0,8.317-3.563A10.816,10.816,0,0,0,23.7,73.115,27.459,27.459,0,0,0,21.283,70.1c-3.065-3.468-4.181-5-1.01-8.2a14.983,14.983,0,0,1,6.509-3.315c4.224-1.333,9.481-2.993,7.936-12.265-1.326-7.952,1.657-9.185,14.5-13.127,2.4-.736,5.059-1.553,7.984-2.528C66.069,27.723,70.1,18.743,68.69,5.3A57.085,57.085,0,0,1,85.683,9.847c-6.665,9.548-7.7,18.255-2.959,25.257,7.36,10.863,6.453,16.025,5.79,19.8a15.983,15.983,0,0,0-.353,3.388,7.3,7.3,0,0,0,5.24,6.256,11.307,11.307,0,0,0,12.3-3.873c.393-.446,1.144-1.142,1.427-.939,1.882,1.334,2.954,10.061-.083,15.489a13.623,13.623,0,0,0-1.043,11.264,12.21,12.21,0,0,0,5.381,6.441,58.018,58.018,0,0,1-14.244,15.569Z" fill="#144a9a"/>
      <g id="Path_8" data-name="Path 8" transform="translate(40.933 41.414)" fill="none" stroke-linecap="round">
        <path d="M21.6,2.49l6.056,12.27L41.2,16.72l-9.8,9.545L33.713,39.75,21.6,33.38,9.487,39.75,11.8,26.265,2,16.72l13.544-1.96L21.6,2.49Z" stroke="none"/>
        <path d="M 21.60000610351562 10.39739608764648 L 17.86711692810059 17.95981597900391 L 9.528514862060547 19.16656112670898 L 15.56083679199219 25.04202651977539 L 14.13583374023438 33.35047149658203 L 21.60000610351562 29.42514610290527 L 29.06417465209961 33.35047149658203 L 27.63917541503906 25.04202651977539 L 33.6714973449707 19.16656112670898 L 25.33289527893066 17.95981597900391 L 21.60000610351562 10.39739608764648 M 21.60000610351562 2.489997863769531 L 27.65640640258789 14.75960540771484 L 41.20001602172852 16.71960639953613 L 31.40000534057617 26.26480674743652 L 33.71280670166016 39.74961471557617 L 21.60000610351562 33.37961578369141 L 9.487197875976562 39.74961471557617 L 11.80000686645508 26.26480674743652 L 1.999996185302734 16.71960639953613 L 15.54360580444336 14.75960540771484 L 21.60000610351562 2.489997863769531 Z" stroke="none" fill="#ff5e14"/>
      </g>
    </g>
  </g>
</svg>
